<svg width="100" height="100" viewBox="0 0 100 100" fill="none" xmlns="http://www.w3.org/2000/svg">
<mask id="mask0_14_322" style="mask-type:alpha" maskUnits="userSpaceOnUse" x="0" y="0" width="100" height="100">
<rect width="100" height="100" rx="50" fill="white"/>
</mask>
<g mask="url(#mask0_14_322)">
<path d="M18.34 13.782C23.228 13.782 28.5547 14.7847 34.32 16.79C40.148 18.7953 45.5373 21.4273 50.488 24.686C55.5013 27.9447 59.6687 31.8613 62.99 36.436C66.374 41.0107 68.066 45.648 68.066 50.348C68.066 53.8573 65.2147 58.244 59.512 63.508C53.872 68.7093 47.3233 73.2213 39.866 77.044C32.4087 80.8667 26.2987 82.778 21.536 82.778C20.4707 82.778 18.7473 81.3993 16.366 78.642C14.0473 75.822 12.888 73.754 12.888 72.438C12.888 69.8687 14.58 62.7247 17.964 51.006C21.4107 39.2247 23.5413 31.1407 24.356 26.754C22.1 25.25 20.22 23.464 18.716 21.396C17.212 19.2653 16.46 17.4793 16.46 16.038C16.46 14.534 17.0867 13.782 18.34 13.782ZM54.53 47.716C54.53 45.7107 52.6813 43.0787 48.984 39.82C45.2867 36.4987 40.994 33.7413 36.106 31.548C35.73 36.248 33.0667 46.306 28.116 61.722C27.8653 62.5367 27.458 63.884 26.894 65.764C26.3927 67.5813 26.0167 68.8033 25.766 69.43C31.9073 67.362 38.2367 63.884 44.754 58.996C51.2713 54.0453 54.53 50.2853 54.53 47.716ZM84.1415 84.47C82.1361 84.47 79.8801 83.248 77.3735 80.804C74.9295 78.36 73.7075 76.2607 73.7075 74.506C73.7075 72.6887 74.4908 70.9027 76.0575 69.148C77.6241 67.3307 79.1908 66.422 80.7575 66.422C82.3868 66.422 84.2041 68.1767 86.2095 71.686C88.2148 75.1953 89.2175 77.8587 89.2175 79.676C89.2175 80.616 88.6221 81.65 87.4315 82.778C86.3035 83.906 85.2068 84.47 84.1415 84.47Z" fill="#E16BB9"/>
</g>
</svg>
